<?xml version="1.0" standalone="no"?>
<!DOCTYPE svg PUBLIC "-//W3C//DTD SVG 20010904//EN"
 "http://www.w3.org/TR/2001/REC-SVG-20010904/DTD/svg10.dtd">
<svg version="1.0" xmlns="http://www.w3.org/2000/svg"
 width="624.000000pt" height="624.000000pt" viewBox="0 0 624.000000 624.000000"
 preserveAspectRatio="xMidYMid meet">
<metadata>
Created by potrace 1.14, written by Peter Selinger 2001-2017
</metadata>
<g transform="translate(0.000000,624.000000) scale(0.100000,-0.100000)"
fill="#000000" stroke="none">
<path d="M2921 5944 c-143 -30 -533 -170 -683 -245 -81 -40 -248 -139 -269
-159 -8 -8 -33 -28 -54 -45 -142 -110 -259 -306 -305 -510 -27 -117 -43 -280
-44 -437 -1 -60 -4 -108 -7 -108 -4 0 -4 -15 0 -32 4 -18 4 -45 0 -60 -4 -15
-5 -28 -3 -30 2 -2 6 -35 9 -73 9 -121 23 -183 57 -249 51 -101 132 -142 272
-138 70 2 85 4 171 22 28 6 61 13 75 15 14 3 48 12 75 20 28 8 64 16 82 20 18
3 44 10 59 15 15 6 29 8 32 6 2 -3 13 -1 24 5 11 6 27 12 36 14 9 2 46 10 82
18 60 14 178 36 290 53 62 9 367 12 410 3 19 -4 57 -10 85 -14 27 -3 83 -13
125 -21 41 -8 86 -17 100 -20 14 -3 102 -25 196 -49 94 -24 183 -46 198 -49
14 -3 34 -7 44 -10 116 -35 281 -37 359 -4 46 19 110 93 132 153 21 55 24 69
36 155 8 50 8 248 0 295 -2 17 -7 50 -10 75 -3 25 -11 60 -16 78 -6 18 -12 43
-14 55 -11 82 -145 396 -191 448 -8 8 -14 19 -14 23 0 13 -112 167 -175 241
-83 98 -193 204 -270 260 -22 17 -42 33 -45 36 -14 17 -156 102 -235 141 -216
104 -432 140 -614 102z"/>
<path d="M346 3133 c-67 -15 -100 -31 -142 -69 -59 -53 -107 -155 -120 -254
-3 -19 -7 -46 -9 -60 -25 -130 -25 -1130 0 -1355 3 -36 15 -130 20 -165 1 -14
6 -47 10 -74 3 -28 8 -53 10 -57 3 -4 7 -24 11 -45 15 -94 110 -365 134 -384
4 -3 15 -20 26 -39 10 -19 26 -42 35 -52 9 -9 21 -23 25 -31 21 -35 127 -107
194 -133 98 -37 189 -39 280 -5 36 13 67 27 70 30 3 4 12 10 20 14 50 24 101
59 220 153 118 93 144 117 315 288 147 148 200 204 320 340 33 38 130 139 215
224 85 86 189 194 230 240 41 46 80 89 86 95 5 6 52 62 102 125 157 195 260
364 312 509 16 44 18 76 16 185 -2 73 -6 141 -9 152 -3 11 -8 34 -12 50 -22
86 -92 178 -166 216 -52 26 -142 46 -220 48 -35 1 -73 2 -84 3 -33 1 -199 -12
-360 -28 -123 -12 -136 -13 -147 -20 -6 -4 -8 -3 -5 3 5 7 -4 8 -28 3 -35 -8
-416 -5 -490 4 -37 5 -58 7 -160 21 -22 3 -60 10 -85 15 -25 5 -63 12 -84 15
-21 3 -48 8 -60 11 -12 2 -37 7 -56 9 -19 2 -44 6 -56 8 -93 22 -285 27 -358
10z"/>
<path d="M4588 2776 c-1 -2 -61 -6 -133 -10 -71 -3 -146 -8 -165 -11 -122 -19
-235 -41 -235 -45 0 -1 -7 -3 -15 -5 -63 -12 -267 -88 -285 -106 -5 -5 -17 -9
-26 -9 -10 0 -19 -3 -21 -8 -1 -4 -32 -25 -68 -46 -76 -44 -200 -136 -200
-148 0 -4 -4 -8 -9 -8 -20 0 -157 -150 -220 -242 -20 -29 -38 -55 -41 -58 -39
-39 -185 -367 -205 -460 -2 -8 -4 -15 -5 -15 -1 0 -3 -7 -5 -15 -2 -8 -9 -35
-16 -60 -6 -25 -13 -54 -15 -65 -2 -11 -8 -40 -14 -65 -23 -99 -31 -168 -35
-297 -8 -235 63 -328 260 -337 61 -3 287 34 424 70 45 12 307 64 348 70 27 3
57 8 68 11 114 25 515 24 665 -1 14 -3 45 -7 70 -10 25 -4 56 -8 70 -10 14 -3
41 -7 60 -10 19 -3 46 -8 60 -11 14 -3 39 -7 55 -9 17 -3 55 -10 85 -16 30 -6
69 -13 85 -16 51 -8 69 -11 105 -18 105 -19 243 -25 320 -13 62 9 162 54 200
89 42 39 86 100 119 165 17 35 31 64 31 65 0 2 9 30 20 63 22 63 64 232 74
299 4 21 8 48 11 60 3 12 7 41 10 66 3 25 8 72 12 105 9 76 9 306 -1 362 -12
75 -36 156 -64 218 -26 59 -96 154 -137 186 -11 10 -33 29 -50 43 -16 14 -34
26 -38 26 -5 0 -21 8 -35 18 -23 16 -48 27 -157 71 -55 22 -217 62 -310 75
-22 3 -53 8 -70 10 -52 8 -118 16 -185 22 -75 7 -125 12 -125 14 0 0 -54 3
-120 6 -66 3 -125 7 -132 9 -6 2 -13 2 -15 1z"/>
</g>
</svg>
