<?xml version="1.0" standalone="no"?>
<!DOCTYPE svg PUBLIC "-//W3C//DTD SVG 20010904//EN"
 "http://www.w3.org/TR/2001/REC-SVG-20010904/DTD/svg10.dtd">
<svg version="1.0" xmlns="http://www.w3.org/2000/svg"
 width="48.000000pt" height="48.000000pt" viewBox="0 0 48.000000 48.000000"
 preserveAspectRatio="xMidYMid meet">

<g transform="translate(0.000000,48.000000) scale(0.100000,-0.100000)"
fill="#000000" stroke="none">
<path d="M153 415 c-124 -62 -149 -216 -52 -313 80 -81 197 -82 277 -2 98 99
74 253 -51 315 -64 32 -110 32 -174 0z m167 -28 c82 -43 115 -158 67 -231
l-17 -25 -42 19 c-55 25 -121 25 -176 0 l-42 -19 -17 25 c-9 14 -18 46 -20 72
-9 94 72 182 167 182 20 0 56 -10 80 -23z m-8 -263 c30 -16 31 -17 13 -30 -40
-30 -130 -30 -170 0 -18 13 -17 14 11 29 38 21 107 21 146 1z"/>
<path d="M192 337 c-27 -29 -28 -61 -2 -87 41 -41 120 -12 120 43 0 30 -39 67
-71 67 -14 0 -35 -10 -47 -23z m78 -22 c6 -8 9 -23 5 -35 -9 -28 -61 -28 -70
0 -8 25 10 50 35 50 10 0 23 -7 30 -15z"/>
</g>
</svg>
