<?xml version="1.0" standalone="no"?>
<!DOCTYPE svg PUBLIC "-//W3C//DTD SVG 20010904//EN"
 "http://www.w3.org/TR/2001/REC-SVG-20010904/DTD/svg10.dtd">
<svg version="1.0" xmlns="http://www.w3.org/2000/svg"
 width="3501.000000pt" height="3501.000000pt" viewBox="0 0 3501.000000 3501.000000"
 preserveAspectRatio="xMidYMid meet">

<g transform="translate(0.000000,3501.000000) scale(0.100000,-0.100000)"
fill="#000000" stroke="none">
<path d="M26967 33570 c-416 -88 -754 -363 -908 -740 -17 -41 -36 -88 -44
-105 -7 -16 -63 -154 -125 -305 -61 -151 -115 -284 -120 -295 -19 -40 -140
-337 -140 -341 0 -3 -9 -25 -20 -49 -11 -24 -49 -115 -84 -202 -35 -87 -87
-214 -116 -283 -28 -69 -58 -142 -66 -164 -8 -21 -26 -66 -40 -100 -14 -33
-30 -70 -34 -81 -4 -11 -15 -36 -23 -55 -9 -19 -31 -73 -50 -120 -44 -107
-198 -486 -284 -695 -36 -88 -69 -169 -73 -180 -14 -33 -62 -148 -75 -180 -7
-16 -50 -120 -95 -230 -45 -110 -101 -247 -125 -305 -24 -58 -57 -141 -75
-185 -18 -44 -38 -94 -45 -110 -24 -53 -127 -308 -142 -349 -8 -22 -18 -47
-23 -57 -10 -17 -126 -59 -192 -69 -4 -1 -22 -6 -40 -11 -18 -5 -64 -17 -103
-25 -38 -9 -99 -22 -135 -30 -82 -18 -206 -44 -245 -50 -16 -3 -46 -9 -65 -14
-19 -5 -51 -12 -70 -15 -35 -5 -173 -31 -330 -60 -97 -19 -85 -17 -245 -44
-66 -12 -133 -24 -150 -27 -16 -3 -39 -7 -50 -9 -84 -13 -294 -48 -360 -60
-44 -8 -179 -31 -300 -50 -121 -20 -231 -38 -245 -41 -14 -2 -41 -7 -60 -10
-19 -2 -46 -7 -60 -9 -14 -3 -47 -8 -75 -11 -27 -3 -57 -7 -65 -9 -8 -3 -89
-16 -180 -30 -91 -13 -237 -36 -325 -50 -88 -14 -176 -27 -195 -30 -19 -3 -51
-8 -70 -11 -19 -4 -48 -8 -65 -10 -16 -3 -57 -9 -90 -14 -64 -10 -233 -36
-300 -45 -22 -3 -51 -8 -65 -10 -14 -3 -41 -7 -60 -10 -19 -2 -219 -32 -445
-66 -225 -33 -426 -63 -445 -65 -19 -3 -46 -7 -60 -9 -14 -3 -59 -9 -101 -15
-41 -6 -86 -13 -100 -15 -13 -3 -46 -7 -74 -11 -27 -3 -126 -17 -220 -30 -93
-14 -188 -28 -210 -30 -22 -3 -148 -21 -280 -40 -132 -19 -256 -37 -275 -40
-19 -2 -96 -13 -170 -24 -74 -10 -175 -21 -225 -24 -195 -12 -280 -18 -297
-21 -9 -2 -43 -6 -75 -10 -75 -8 -292 -51 -363 -71 -232 -68 -403 -134 -595
-232 -178 -91 -241 -133 -895 -591 -747 -524 -775 -543 -1415 -986 -761 -526
-818 -565 -955 -659 -63 -42 -216 -147 -340 -231 -319 -219 -1255 -844 -1443
-964 l-157 -101 -113 153 c-62 83 -562 766 -1112 1516 -691 942 -1022 1386
-1073 1437 -99 100 -188 164 -312 228 -119 61 -190 85 -339 116 -92 20 -124
22 -270 17 -103 -4 -189 -12 -226 -22 -33 -9 -70 -18 -83 -21 -47 -10 -215
-83 -282 -124 -202 -119 -376 -309 -482 -525 -40 -81 -49 -104 -77 -201 -22
-71 -24 -84 -41 -209 -12 -84 -6 -281 10 -350 6 -27 14 -61 16 -75 17 -94 98
-280 167 -383 23 -34 690 -947 1482 -2027 1272 -1737 1452 -1977 1545 -2071
182 -185 384 -293 639 -345 92 -18 286 -24 389 -11 140 17 302 68 422 134 63
34 470 250 675 358 55 29 263 139 462 244 200 105 425 223 500 262 76 40 147
77 158 84 11 7 97 52 190 100 94 48 184 95 200 105 17 10 82 44 145 77 108 57
419 221 575 303 39 20 129 68 200 105 72 37 135 71 140 76 6 4 22 12 35 17
l25 10 -3 -2891 c-1 -1638 2 -2895 7 -2900 5 -5 44 13 92 41 98 58 303 178
549 322 96 57 249 147 340 200 91 53 248 145 350 205 102 59 259 152 350 205
164 97 810 476 1810 1062 146 86 470 276 720 423 250 147 480 282 510 300 30
17 93 54 140 82 47 27 146 85 221 129 75 43 317 185 537 314 l401 235 1 2016
0 2015 73 31 c39 18 135 57 212 88 77 32 154 63 170 71 17 7 71 29 120 49 197
80 261 106 535 219 157 65 299 124 315 131 17 8 118 49 225 93 180 74 544 224
835 345 66 27 156 64 200 82 105 42 205 84 230 95 11 5 81 34 155 64 268 109
606 249 647 267 23 10 44 19 47 19 3 0 63 24 133 54 71 30 367 151 658 271
292 119 563 232 603 250 114 54 241 147 345 254 156 160 203 243 362 636 31
77 60 149 65 160 11 25 56 133 85 205 74 182 280 684 300 730 13 30 57 138 98
240 80 198 93 228 113 275 20 47 246 600 329 805 24 58 65 159 93 225 27 66
84 206 127 310 42 105 82 204 90 220 7 17 32 77 55 135 23 58 48 119 55 135 7
17 23 55 35 85 12 30 29 70 37 88 14 33 80 193 168 412 25 63 52 129 60 145
29 65 197 481 225 555 24 67 51 166 56 205 0 6 4 30 7 55 43 283 -28 594 -191
841 -190 288 -491 485 -830 544 -119 21 -334 18 -445 -5z"/>
<path d="M17570 33219 c-107 -11 -173 -19 -190 -24 -8 -2 -31 -7 -50 -10 -19
-3 -89 -19 -155 -35 -657 -161 -1230 -566 -1616 -1145 -79 -118 -228 -402
-263 -500 -32 -94 -78 -230 -82 -245 -2 -8 -12 -49 -24 -90 -54 -201 -75 -385
-75 -660 0 -266 11 -375 56 -585 177 -809 720 -1501 1464 -1865 313 -153 605
-236 945 -268 145 -14 601 -4 630 13 3 1 28 6 55 9 28 4 57 9 65 11 8 2 26 6
40 9 182 31 437 116 640 213 563 269 1024 733 1289 1294 172 364 254 725 260
1144 6 443 -100 885 -310 1284 -266 506 -692 924 -1198 1174 -175 86 -202 98
-351 147 -300 101 -553 140 -880 138 -96 0 -209 -4 -250 -9z"/>
<path d="M24590 21473 c-87 -9 -254 -48 -353 -84 -117 -41 -220 -93 -337 -171
-41 -27 -219 -122 -395 -210 -176 -88 -545 -274 -820 -413 -275 -139 -779
-393 -1120 -565 -474 -239 -686 -352 -900 -480 -154 -92 -433 -259 -620 -370
-187 -112 -466 -278 -620 -370 -154 -92 -419 -251 -590 -352 -170 -102 -602
-360 -960 -573 -357 -213 -787 -470 -955 -570 -168 -100 -597 -357 -955 -570
-357 -213 -783 -467 -945 -564 -162 -97 -336 -201 -386 -230 l-91 -53 -16 -62
c-16 -63 -40 -147 -102 -366 -19 -69 -37 -134 -40 -145 -2 -11 -20 -76 -40
-145 -73 -257 -126 -447 -129 -461 -1 -8 -10 -41 -20 -74 -46 -159 -67 -234
-71 -255 -2 -13 -11 -44 -19 -69 -7 -25 -18 -64 -25 -86 -32 -117 -45 -166
-62 -220 -10 -33 -28 -96 -40 -140 -39 -147 -182 -661 -214 -770 -16 -54 -153
-546 -191 -685 -29 -108 -64 -232 -109 -390 -19 -69 -37 -134 -40 -145 -2 -11
-20 -76 -40 -145 -41 -146 -106 -378 -141 -502 -13 -49 -35 -128 -49 -176 -14
-49 -27 -97 -29 -108 -2 -11 -15 -58 -29 -104 -32 -111 -83 -290 -212 -755
-58 -209 -112 -402 -120 -430 -8 -27 -37 -132 -65 -233 -27 -101 -58 -213 -70
-250 -11 -38 -33 -120 -50 -182 -17 -63 -33 -122 -35 -130 -5 -13 -32 -112
-55 -195 -5 -16 -20 -73 -35 -125 -15 -52 -29 -102 -31 -110 -2 -8 -19 -71
-39 -140 -43 -154 -109 -386 -140 -500 -13 -47 -35 -126 -50 -176 -14 -50 -27
-99 -29 -110 -2 -11 -15 -58 -29 -104 -32 -111 -83 -290 -212 -755 -58 -209
-112 -402 -120 -430 -8 -27 -37 -132 -65 -233 -27 -101 -58 -213 -70 -250 -11
-38 -33 -120 -50 -182 -17 -63 -33 -122 -35 -130 -5 -13 -32 -112 -55 -195 -5
-16 -20 -73 -35 -125 -15 -52 -29 -102 -31 -110 -2 -8 -19 -71 -39 -140 -42
-149 -107 -381 -141 -502 -13 -49 -35 -128 -49 -176 -14 -49 -27 -97 -29 -108
-2 -11 -15 -58 -29 -104 -14 -47 -43 -150 -65 -230 -23 -80 -66 -234 -97 -342
-82 -291 -90 -344 -89 -558 1 -226 42 -396 148 -615 166 -343 475 -612 843
-734 48 -16 102 -32 118 -34 17 -3 55 -11 85 -18 36 -9 124 -14 250 -14 208 0
279 10 439 61 116 37 326 146 421 218 206 155 385 387 481 621 4 11 29 72 54
135 26 63 55 134 66 158 11 24 33 78 50 120 17 42 42 101 55 130 13 29 24 55
24 58 0 3 9 25 20 49 22 48 324 764 610 1445 100 239 188 449 195 465 13 31
61 144 76 180 4 11 20 47 35 80 14 33 35 83 46 110 10 28 27 68 37 90 10 22
118 279 240 570 123 292 231 550 242 574 11 24 29 67 40 95 11 28 29 71 40 95
11 24 29 67 40 95 11 28 29 71 40 95 11 24 29 67 40 95 11 28 27 67 36 86 9
19 34 78 56 130 21 52 56 136 77 185 21 50 50 119 64 155 15 36 33 79 41 95 7
17 43 102 80 190 37 88 76 180 87 204 10 24 28 67 39 95 11 28 26 65 34 81 7
17 39 91 70 165 31 74 62 149 70 165 10 23 156 372 255 610 13 30 63 147 113
265 25 58 93 220 152 360 58 140 112 269 120 285 7 17 72 172 145 345 72 173
138 329 145 345 15 34 108 255 162 385 20 47 55 130 79 185 23 55 72 172 109
260 36 88 72 174 80 190 7 17 54 129 105 250 50 121 98 234 105 250 7 17 43
102 80 190 38 88 100 237 140 330 40 94 147 350 240 570 92 220 178 424 191
453 13 29 24 56 24 61 0 11 66 39 215 91 387 134 553 204 710 298 33 20 272
195 530 390 259 195 719 541 1023 770 706 531 1189 895 1927 1452 888 669 889
670 896 657 4 -7 19 -55 33 -107 15 -52 34 -117 42 -145 42 -147 105 -372 108
-385 3 -8 23 -80 45 -160 23 -80 43 -153 46 -163 8 -33 66 -242 84 -302 10
-33 31 -105 46 -160 15 -55 33 -117 41 -137 8 -21 12 -38 10 -38 -2 0 3 -21
11 -47 8 -27 25 -86 38 -133 13 -47 39 -141 58 -210 83 -297 186 -665 219
-775 6 -22 12 -42 13 -45 1 -3 5 -18 10 -35 4 -16 23 -84 42 -150 18 -66 36
-131 39 -144 3 -13 9 -32 15 -43 5 -10 7 -18 5 -18 -3 0 -1 -11 4 -25 5 -14
21 -69 35 -122 14 -54 34 -127 45 -163 11 -36 47 -164 80 -285 34 -121 65
-231 70 -245 4 -14 13 -43 19 -65 6 -22 29 -105 52 -185 23 -80 45 -158 49
-175 7 -28 32 -118 102 -365 16 -58 38 -139 49 -180 90 -334 196 -527 409
-741 137 -137 264 -229 411 -298 80 -37 239 -93 304 -105 70 -14 83 -17 140
-26 86 -14 295 -12 400 4 340 52 634 206 864 452 193 206 330 476 375 739 30
170 30 398 2 538 -13 65 -77 302 -141 522 -46 157 -90 315 -104 365 -19 75
-72 267 -81 295 -15 44 -61 207 -65 230 -3 11 -14 52 -25 90 -12 39 -32 108
-45 155 -56 201 -75 271 -105 375 -17 61 -38 135 -46 165 -8 30 -22 80 -31
110 -9 30 -18 60 -19 65 -2 14 -77 277 -131 465 -24 85 -46 164 -49 175 -2 11
-29 108 -60 215 -78 275 -94 332 -99 355 -3 11 -14 52 -25 90 -12 39 -30 104
-41 145 -11 41 -24 86 -30 100 -5 14 -12 36 -14 50 -3 14 -14 57 -26 95 -11
39 -25 88 -30 110 -5 22 -21 76 -34 120 -13 44 -45 154 -70 245 -26 91 -55
197 -66 235 -11 39 -22 81 -25 94 -3 14 -7 28 -10 33 -3 4 -7 16 -9 27 -4 22
-46 173 -122 436 -30 105 -56 199 -58 210 -3 11 -23 83 -45 160 -55 193 -119
419 -136 484 -39 144 -66 238 -75 261 -5 14 -12 36 -14 50 -3 14 -23 88 -45
165 -22 77 -42 147 -45 155 -2 8 -14 49 -25 90 -12 41 -24 85 -26 98 -3 13
-11 42 -18 65 -8 23 -28 95 -46 160 -61 229 -140 399 -262 561 -166 221 -370
376 -659 500 -62 26 -188 58 -324 81 -46 8 -293 14 -345 8z"/>
</g>
</svg>
