<svg width="156" height="142" viewBox="0 0 156 142" fill="none" xmlns="http://www.w3.org/2000/svg">
<path d="M68.2693 85.4352C67.9622 95.758 46.061 115.864 46.061 115.864C46.061 115.864 26.2967 139.737 17.3507 139.419C-1.0404 138.766 1.07129 103.168 1.66932 83.0683C2.26736 62.9682 16.3151 72.553 34.7062 73.2066C53.0973 73.8602 68.8674 65.3351 68.2693 85.4352Z" fill="#EC3131"/>
<path d="M34.8725 99.6649C34.7322 104.378 31.1228 108.074 26.8105 107.921C22.4982 107.768 19.116 103.823 19.2563 99.1099C19.3965 94.3969 23.006 90.7005 27.3183 90.8537C31.6306 91.007 35.0127 94.9519 34.8725 99.6649Z" fill="white"/>
<path d="M72.4799 115.344C67.81 141.612 87.1183 123.87 110.913 125.589C134.707 127.307 145.262 137.87 149.932 111.603C154.602 85.3353 142.835 81.5894 119.04 79.8707C95.246 78.152 77.1497 89.0766 72.4799 115.344Z" fill="#39C736"/>
<ellipse rx="8.7607" ry="9.92059" transform="matrix(-0.65556 -0.755143 0.694161 -0.71982 114.63 104.757)" fill="white"/>
<path d="M112.835 40.4544C112.835 62.7381 96.3068 47.5459 75.9177 47.5459C55.5286 47.5459 39 62.7381 39 40.4544C39 18.1707 41.8567 9.68247 71.303 0.796246C89.0985 -4.57405 112.835 18.1707 112.835 40.4544Z" fill="black"/>
<ellipse cx="75.9177" cy="27.7386" rx="8.27851" ry="9.04779" fill="white"/>
</svg>
