<svg width="571" height="131" viewBox="0 0 571 131" fill="none" xmlns="http://www.w3.org/2000/svg">
<path d="M168.473 106.895V48.1641C168.473 42.3857 172.056 38.0125 179.224 35.0444C183.234 33.3709 187.623 32.5342 192.391 32.5342C197.159 32.5342 201.548 33.3709 205.558 35.0444C212.726 38.0125 216.31 42.3857 216.31 48.1641V102.632L207.311 106.895H206.837V48.1641C206.837 45.9854 204.927 44.1382 201.106 42.6226C198.454 41.5806 195.549 41.0596 192.391 41.0596C189.234 41.0596 186.329 41.5806 183.676 42.6226C179.856 44.1382 177.945 45.9854 177.945 48.1641V102.632L168.946 106.895H168.473ZM244.728 90.3174C244.728 92.4645 246.638 94.3117 250.458 95.8589C253.111 96.9009 256.016 97.4219 259.173 97.4219C262.331 97.4219 265.236 96.9009 267.888 95.8589C271.709 94.3433 273.619 92.4961 273.619 90.3174V48.1641C273.619 46.0169 271.709 44.1698 267.888 42.6226C265.236 41.5806 262.331 41.0596 259.173 41.0596C256.016 41.0596 253.111 41.5806 250.458 42.6226C246.638 44.1382 244.728 45.9854 244.728 48.1641V90.3174ZM235.255 90.3174C235.255 90.3174 235.255 76.2663 235.255 48.1641C235.255 42.3857 238.839 38.0125 246.006 35.0444C250.016 33.3709 254.405 32.5342 259.173 32.5342C263.941 32.5342 268.33 33.3709 272.34 35.0444C279.508 38.0125 283.092 42.3857 283.092 48.1641V90.3174C283.092 96.0957 279.508 100.469 272.34 103.437C268.33 105.111 263.941 105.947 259.173 105.947C254.405 105.947 250.016 105.111 246.006 103.437C238.839 100.469 235.255 96.0957 235.255 90.3174ZM311.51 61.1416H325.008C327.692 61.1416 329.887 60.6206 331.592 59.5786C333.992 58.063 335.191 56.2158 335.191 54.0371V49.1113C335.191 46.459 333.928 44.6118 331.402 43.5698C328.876 42.5278 326.745 42.0068 325.008 42.0068H311.51V61.1416ZM311.51 96.4746H325.008C328.166 96.4746 331.071 95.9536 333.723 94.9116C337.544 93.4276 339.454 91.5804 339.454 89.3701V76.7715C339.454 74.5928 337.544 72.7456 333.723 71.23C331.071 70.188 328.166 69.667 325.008 69.667H311.51V96.4746ZM302.037 105V35.8496L307.058 33.4814H325.008C329.018 33.4814 332.697 34.3182 336.044 35.9917C341.791 38.9282 344.664 43.3014 344.664 49.1113V54.0371C344.664 57.6367 342.722 61.1732 338.838 64.6465C345.564 67.583 348.927 71.6247 348.927 76.7715V89.3701C348.927 95.1169 345.343 99.4901 338.175 102.49C334.165 104.163 329.776 105 325.008 105H302.037ZM376.397 90.3174C376.397 92.4645 378.308 94.3117 382.128 95.8589C384.781 96.9009 387.686 97.4219 390.843 97.4219C394.001 97.4219 396.906 96.9009 399.558 95.8589C403.379 94.3433 405.289 92.4961 405.289 90.3174V48.1641C405.289 46.0169 403.379 44.1698 399.558 42.6226C396.906 41.5806 394.001 41.0596 390.843 41.0596C387.686 41.0596 384.781 41.5806 382.128 42.6226C378.308 44.1382 376.397 45.9854 376.397 48.1641V90.3174ZM366.925 90.3174C366.925 90.3174 366.925 76.2663 366.925 48.1641C366.925 42.3857 370.509 38.0125 377.676 35.0444C381.686 33.3709 386.075 32.5342 390.843 32.5342C395.611 32.5342 400 33.3709 404.01 35.0444C411.178 38.0125 414.762 42.3857 414.762 48.1641V90.3174C414.762 96.0957 411.178 100.469 404.01 103.437C400 105.111 395.611 105.947 390.843 105.947C386.075 105.947 381.686 105.111 377.676 103.437C370.509 100.469 366.925 96.0957 366.925 90.3174ZM481.544 78.9502V90.3174C481.544 96.0957 477.96 100.469 470.792 103.437C466.782 105.111 462.393 105.947 457.625 105.947C452.858 105.947 448.469 105.111 444.458 103.437C437.291 100.469 433.707 96.0957 433.707 90.3174V48.1641C433.707 42.3857 437.291 38.0125 444.458 35.0444C448.469 33.3709 452.858 32.5342 457.625 32.5342C462.393 32.5342 466.782 33.3709 470.792 35.0444C477.96 38.0125 481.544 42.3857 481.544 48.1641V55.2686L472.545 59.5312H472.071V48.1641C472.071 46.0169 470.161 44.1698 466.34 42.6226C463.688 41.5806 460.783 41.0596 457.625 41.0596C454.468 41.0596 451.563 41.5806 448.911 42.6226C445.09 44.1382 443.18 45.9854 443.18 48.1641V90.3174C443.18 92.4645 445.09 94.3117 448.911 95.8589C451.563 96.9009 454.468 97.4219 457.625 97.4219C460.783 97.4219 463.688 96.9009 466.34 95.8589C470.161 94.3433 472.071 92.4961 472.071 90.3174V83.2129L481.07 78.9502H481.544ZM509.962 90.3174C509.962 92.4645 511.872 94.3117 515.693 95.8589C518.345 96.9009 521.25 97.4219 524.408 97.4219C527.565 97.4219 530.47 96.9009 533.123 95.8589C536.943 94.3433 538.854 92.4961 538.854 90.3174V48.1641C538.854 46.0169 536.943 44.1698 533.123 42.6226C530.47 41.5806 527.565 41.0596 524.408 41.0596C521.25 41.0596 518.345 41.5806 515.693 42.6226C511.872 44.1382 509.962 45.9854 509.962 48.1641V90.3174ZM500.489 90.3174C500.489 90.3174 500.489 76.2663 500.489 48.1641C500.489 42.3857 504.073 38.0125 511.241 35.0444C515.251 33.3709 519.64 32.5342 524.408 32.5342C529.176 32.5342 533.565 33.3709 537.575 35.0444C544.742 38.0125 548.326 42.3857 548.326 48.1641V90.3174C548.326 96.0957 544.742 100.469 537.575 103.437C533.565 105.111 529.176 105.947 524.408 105.947C519.64 105.947 515.251 105.111 511.241 103.437C504.073 100.469 500.489 96.0957 500.489 90.3174Z" fill="black"/>
<path d="M68.2693 74.4352C67.9622 84.758 46.061 104.864 46.061 104.864C46.061 104.864 26.2967 128.737 17.3507 128.419C-1.0404 127.766 1.07129 92.1684 1.66932 72.0683C2.26736 51.9682 16.3151 61.553 34.7062 62.2066C53.0973 62.8602 68.8674 54.3351 68.2693 74.4352Z" fill="#EC3131"/>
<path d="M34.8725 88.6649C34.7322 93.3779 31.1228 97.0743 26.8105 96.921C22.4982 96.7678 19.116 92.8229 19.2563 88.1099C19.3965 83.3969 23.006 79.7004 27.3183 79.8537C31.6306 80.0069 35.0127 83.9518 34.8725 88.6649Z" fill="white"/>
<path d="M112.835 40.4544C112.835 62.7381 96.3068 47.5459 75.9177 47.5459C55.5286 47.5459 39 62.7381 39 40.4544C39 18.1707 41.8567 9.68247 71.303 0.796246C89.0985 -4.57405 112.835 18.1707 112.835 40.4544Z" fill="black"/>
<ellipse cx="75.9177" cy="27.7386" rx="8.27851" ry="9.04779" fill="white"/>
<path d="M73.7221 111.222C71.1752 137.993 89.1248 118.593 113.17 118.377C137.216 118.16 148.683 127.911 151.229 101.14C153.776 74.3687 141.649 71.566 117.603 71.7821C93.5577 71.9981 76.269 84.4511 73.7221 111.222Z" fill="#39C736"/>
<ellipse rx="8.83051" ry="9.99965" transform="matrix(-0.99785 -0.0655339 -0.0230363 -0.999735 113.388 97.7588)" fill="white"/>
</svg>
